<svg fill="#ffffff" xmlns="http://www.w3.org/2000/svg"  viewBox="0 0 16 16" width="32px" height="32px"><path d="M 8.882813 1.003906 C 8.734375 0.992188 8.578125 1.007813 8.429688 1.0625 C 7.820313 1.265625 7.492188 1.921875 7.695313 2.53125 L 8.171875 3.96875 L 5.433594 4.882813 L 4.976563 3.507813 C 4.769531 2.902344 4.113281 2.574219 3.503906 2.773438 C 2.894531 2.980469 2.566406 3.636719 2.773438 4.246094 L 3.230469 5.621094 L 1.796875 6.101563 C 1.1875 6.304688 0.859375 6.964844 1.0625 7.570313 C 1.265625 8.179688 1.921875 8.507813 2.53125 8.304688 L 3.96875 7.828125 L 4.882813 10.566406 L 3.507813 11.027344 C 2.902344 11.230469 2.570313 11.886719 2.773438 12.496094 C 2.980469 13.105469 3.636719 13.433594 4.246094 13.230469 L 5.621094 12.769531 L 6.101563 14.207031 C 6.304688 14.816406 6.964844 15.144531 7.570313 14.9375 C 8.179688 14.734375 8.507813 14.078125 8.304688 13.46875 L 7.828125 12.03125 L 10.5625 11.113281 L 11.027344 12.488281 C 11.230469 13.097656 11.886719 13.429688 12.496094 13.222656 C 13.105469 13.019531 13.433594 12.363281 13.230469 11.75 L 12.769531 10.378906 L 14.203125 9.898438 C 14.8125 9.695313 15.144531 9.035156 14.9375 8.429688 C 14.734375 7.820313 14.078125 7.488281 13.46875 7.695313 L 12.03125 8.171875 L 11.117188 5.433594 L 12.488281 4.976563 C 13.097656 4.769531 13.429688 4.113281 13.222656 3.503906 C 13.019531 2.894531 12.363281 2.566406 11.753906 2.773438 L 10.378906 3.230469 L 9.898438 1.792969 C 9.746094 1.335938 9.335938 1.039063 8.882813 1.003906 Z M 8.914063 6.171875 L 9.828125 8.914063 L 7.085938 9.828125 L 6.171875 7.085938 Z"/></svg>